<?xml version="1.0" encoding="UTF-8" standalone="no"?><svg xmlns:svg="http://www.w3.org/2000/svg" xmlns="http://www.w3.org/2000/svg" xmlns:xlink="http://www.w3.org/1999/xlink" version="1.0" width="300px" height="20px" viewBox="0 0 128 16" xml:space="preserve"><linearGradient id="linear-gradient" gradientTransform="rotate(90)"><stop offset="0%" stop-color="#89969c"/><stop offset="100%" stop-color="#a7b1b6"/></linearGradient><g><path fill="#808e95" d="M-28.13 2.58a31.8 31.8 0 0 1 7.85-.6 7.37 7.37 0 0 1 2.83.44A65.36 65.36 0 0 1-11 5.34a2.1 2.1 0 0 0 1.16.22 16.46 16.46 0 0 1 6.03.76A15.86 15.86 0 0 1-.5 8.66v.08c0 .3 0 .6-.03.92v.08a3.83 3.83 0 0 0-.5.5 4.3 4.3 0 0 1-2.46.27 14.17 14.17 0 0 1 0 2.4c.6 0 1.2 0 1.9.1a6.53 6.53 0 0 1-1.8.2c-.3-.1-.6-.3-.9-.4A3.72 3.72 0 0 1-6 14.3a3.45 3.45 0 0 1-3.55-.15 9.45 9.45 0 0 1-.96-.85 6.76 6.76 0 0 0-1.4-.08 3.83 3.83 0 0 0 .2-1.44 12.98 12.98 0 0 1 .2-1.56 1.5 1.5 0 0 0-.6-1.56 8.27 8.27 0 0 0-.9-.6 1.43 1.43 0 0 0-1 .4 2.8 2.8 0 0 1-1.6.4c-.9 0-1.7-.02-2.5.07a52.92 52.92 0 0 1-5.4.12 2.03 2.03 0 0 0-1 .38l-.3-.08-.1.18a3.2 3.2 0 0 0-1.7-.5c-1.1.04-2.1 0-3.1.04a4.46 4.46 0 0 0-1.4.37 2.98 2.98 0 0 1-1.3.1l.1.22 2 .12a1.36 1.36 0 0 0-.8.54 7.07 7.07 0 0 0 .7-.35 1.5 1.5 0 0 0-.2 1.2 12.4 12.4 0 0 1 2.5-.06c1 .1 2 .1 3 .3a3.36 3.36 0 0 0 1.3 0 2 2 0 0 0 .9.6c1 .2 2 .1 3 .2 1.1.1 2.3 0 3.4.1a31.85 31.85 0 0 0 3.3 0 6.95 6.95 0 0 1-1.8.1h-7.5c-.8 0-1.6-.1-2.4-.1-.9 0-1.9 0-2.8-.1a3.9 3.9 0 0 1-2.2-.3v.3a8.7 8.7 0 0 1-1.08-.2A10.42 10.42 0 0 0-31 11a6.82 6.82 0 0 0-.9.5 5.55 5.55 0 0 0 .2 2c-.5.1-1 .08-1.5.16-.25.18-.44.4-.68.6a3.47 3.47 0 0 1-3.8.27 4.03 4.03 0 0 1-1.6-1.74 2.2 2.2 0 0 1-2.1-.1c.4 0 .77.1 1.14.1-.05-.6-.05-1.2-.05-1.7a1.15 1.15 0 0 0-.2-.8c-.3-.4-1-.4-1.4-.8a2.62 2.62 0 0 1-.1-1.1c.2 0 .4-.1.5-.1l.8-.2h-1.1l-.1-.2a3.9 3.9 0 0 1 .3-2.7 1.88 1.88 0 0 1 1-.4 15.83 15.83 0 0 0 2.3-.4 36.04 36.04 0 0 1 4.2-.5c1.98-.4 3.9-.9 5.8-1.4z"/><path fill="#a9b3b8" d="M-19.2 2.33a3.8 3.8 0 0 1 1.98.42c.9.37 1.8.77 2.67 1.23-.23 0-.45.03-.68.06a1.7 1.7 0 0 0 .63.24l-.12.22-.57-.12a.67.67 0 0 0-.2-.36 16.9 16.9 0 0 0-1.7-.84l.1-.04.1-.03a12.97 12.97 0 0 0-2.1-.7zm-1.22.84a3.85 3.85 0 0 1 1.34-.12v.23a28.6 28.6 0 0 1-3.18.33c.6-.1 1.24-.2 1.84-.4zm-5.2.88a13.2 13.2 0 0 1 3-.4 18.94 18.94 0 0 1-2.3.4c-.6.06-1.2.3-1.84.34a3.13 3.13 0 0 1 1.14-.4zm1.3.16a8.36 8.36 0 0 1 2.3-.4c-.18.3-.35.5-.55.7a1.1 1.1 0 0 1-.57.1c-.78 0-1.56.2-2.34.1a2.28 2.28 0 0 1 1.15-.4zM-41.7 7.8l.15.2c.1.1.2.17.3.25l-.5.04a2.62 2.62 0 0 0 .16 1.1c.4.4 1.1.3 1.4.8a1.15 1.15 0 0 1 .2.7c0 .5 0 1.1.1 1.7-.3-.1-.7-.2-1.1-.2a21.3 21.3 0 0 0-.7-2.5l.2-.2-.3-.1.1-.1a.94.94 0 0 0 .1-.7 1.9 1.9 0 0 0-.3-.3 1.06 1.06 0 0 1 .5-1zm38.94.4h.48v.08l-.04.2c.15 0 .3 0 .46-.02a.93.93 0 0 1 .52.25l-1.46-.1a6.06 6.06 0 0 1-1.58-.2c.65 0 1.3.1 1.94.1l-.33-.1zm2.3.57a1.86 1.86 0 0 1 .52.4h-.2c-.05.15-.08.3-.1.46l-.25.06c.1-.3.1-.6.1-.9zM-1 10.2a3.83 3.83 0 0 1 .5-.5 1.13 1.13 0 0 1-.2.6c-.3.42-.67.8-.97 1.24l.05-.42A10.15 10.15 0 0 0-1 10.2zm-2.45.26A4.3 4.3 0 0 0-1 10.2a10.15 10.15 0 0 1-.6.92l-.8-.22a2.7 2.7 0 0 1 .17.4 3.45 3.45 0 0 1-.55.8l.5.05c0 .1-.02.18-.03.28l.4-.02.1.3.5.1a1.75 1.75 0 0 1-.4.1h-1.8a14.17 14.17 0 0 0 0-2.4z"/><path fill="url(#linear-gradient)" d="M-31.87 9.7l-.13-.2a2.98 2.98 0 0 0 1.28-.1 4.46 4.46 0 0 1 1.42-.36A29.52 29.52 0 0 1-26.22 9c.6.04.96 0 1.53 0h.9c.5 0 .3.02.6.02a52.93 52.93 0 0 0 5.4-.12c.9-.1 1.7-.07 2.5-.08a2.8 2.8 0 0 0 1.6-.38 1.43 1.43 0 0 1 1-.42 8.25 8.25 0 0 1 .9.62 1.5 1.5 0 0 1 .7 1.55 13 13 0 0 0-.2 1.5 3.83 3.83 0 0 1-.2 1.4 4.54 4.54 0 0 0-.9-.2c-1.6 0-3.2-.1-4.8-.1-3.7-.1-7.3-.1-11 0-.9 0-3.4.4-4.4.4-.7 0 1.4-1.4 1.4-2.1"/><path fill="#ced4d6" d="M-27.08 5.1c.64-.08 1.37.25 1.93-.2l-.1.3-.02.07 2.76.2c.7.06 1.4.02 2.1.1l-.1.13c1.1 0 2.2.03 3.4 0v-.16c.8.02 1.6-.02 2.4.03a4.16 4.16 0 0 1-1.4.2 39.75 39.75 0 0 1-6 .03 18 18 0 0 1-5.2-.7zm-14.47 2.82h1.1c-.26.1-.53.18-.8.24l-.3-.24zm-.62.7a1.9 1.9 0 0 1 .34.33.94.94 0 0 1-.15.62 5.5 5.5 0 0 1-.2-.94zm42 .45h.23a8.23 8.23 0 0 0-.2 1.46l-.06-.47a6.2 6.2 0 0 0-.53 1.3l.3.1.1.04-.1.03a5.16 5.16 0 0 0-.8.42 1.42 1.42 0 0 1-.73.1l.3-.52c.28-.43.64-.82.95-1.24a1.13 1.13 0 0 0 .2-.7l.2-.1.1-.5zm-1.7 3.33a4.82 4.82 0 0 0 .97-.2l-.27.6-.07-.02-.56-.12-.08-.26z"/><path fill="#e7e9eb" d="M-14.14 4.38a5.86 5.86 0 0 1 1.67 1.08l-.52.1c.1-.08.1-.17.1-.25a3.37 3.37 0 0 1-1.2-.9zm-10.9.64c1.75.08 3.5.33 5.27.45a2.35 2.35 0 0 1 .85.18 4.47 4.47 0 0 1-1.42 0c-.72-.08-1.45-.04-2.17-.1l-2.8-.2v-.08c.5-.02.9.03 1.4-.02A5 5 0 0 0-25.1 5z"/><path fill="#ffffff" d="M-27.65 3.22a34.57 34.57 0 0 1 6.26-.96 9.55 9.55 0 0 1 2.4.14 12.97 12.97 0 0 1 2.1.78l-.1.04a12.13 12.13 0 0 0-3-.64 5.75 5.75 0 0 0-1.6.42 12.93 12.93 0 0 1-3 .6 16.64 16.64 0 0 0-2.9.6 2.12 2.12 0 0 1-1.6-.2v-.07a3.53 3.53 0 0 1 1.6-.67z"/><path fill="#8f9ca2" d="M-.73 11.38a6.2 6.2 0 0 1 .52-1.3v.46a4.14 4.14 0 0 1-.3.93l-.3-.1zm-1.67-.48l.78.22-.05.42-.3.52a1.42 1.42 0 0 0 .73-.1 5.17 5.17 0 0 1 .82-.42.94.94 0 0 1-.48.66 4.82 4.82 0 0 1-.98.2c-.15 0-.3 0-.43.02v-.28l-.5-.04a3.45 3.45 0 0 0 .5-.82 2.7 2.7 0 0 0-.2-.38z"/><path fill="#e7e9eb" d="M-29.88 3.9l.47-.1.1.1v.06a1.83 1.83 0 0 0 1.1.45 6.63 6.63 0 0 0 1.9.3v.2a35.1 35.1 0 0 0-3.7-.3l.3-.3-.3-.3zm-8 .9a24.65 24.65 0 0 1 5.76-.4 9.87 9.87 0 0 1 2.25.12c.94.3 1.9.54 2.83.87a7.18 7.18 0 0 0 2.37.4c2.38.1 4.77.3 7.16.2.9 0 1.8-.1 2.8-.1a2.54 2.54 0 0 1-1.6.3c-1.2 0-2.3.1-3.4 0-1.7 0-3.4-.3-5.1-.4a21.54 21.54 0 0 1-2.5-.4c-1.2-.2-2.4-.6-3.6-.7-.7-.1-1.4 0-2.1-.1a14.94 14.94 0 0 0-6 .4 11.95 11.95 0 0 1-2.6.5l-.1-.3c1.1-.4 2.3-.6 3.5-.8zm24.15 1.1a25.1 25.1 0 0 1 3.3-.07c1.9.04 3.83-.15 5.66.48a.76.76 0 0 0 .68.1 13.95 13.95 0 0 0 2.4 1.8v.3c-.1 0-.3 0-.4.1l.1-.2h.4c-.4-.3-.8-.5-1.2-.8a9.13 9.13 0 0 0-1.8-1.1 10.15 10.15 0 0 0-3.2-.4H-12c-.7 0-1.4.2-2.07.2a.66.66 0 0 1 .46-.3z"/><path fill="#a9b3b8" d="M-37.2 13.47l.84-.7.2.53a3.18 3.18 0 0 0 1.67 0l.2.1-.1.23h-.1a17.35 17.35 0 0 0-2.3-.1l-.2-.06z"/><path fill="#ffffff" d="M-36.96 8.7a2.87 2.87 0 0 1 3.15.4 2.8 2.8 0 0 1 .4 3.8l.3-1.04a3.48 3.48 0 0 0-.1-1.32l-.2.13-.3.16-.2.08a1.63 1.63 0 0 0-.9.7 2 2 0 0 0 .2 1c.1.2.2.5.3.7l-.1.1-.1.2h-.2l-.2-.1a1.53 1.53 0 0 0-1.1-.7c-.2 0-.3 0-.4-.1a5.15 5.15 0 0 0-.4.3c-.3.3-.6.5-.9.7l.3.1a3.7 3.7 0 0 0 1.1.4A3.74 3.74 0 0 0-35 14h.5a2.83 2.83 0 0 1-3.7-.4 2.86 2.86 0 0 1-.7-2.43 2.9 2.9 0 0 1 1.8-2.3z"/><path fill="#e7e9eb" d="M-36.1 8.65l.33-.06c-.1.5-.3 1-.36 1.6a1.6 1.6 0 0 1 .15 1.1 1.17 1.17 0 0 1-.5-1V10l.07-.5-.8.1.2-.3a6.84 6.84 0 0 0 1.1-.66l-.3-.15zm1.4.53c.25.06.5.12.73.2a1.55 1.55 0 0 1 .58.72l-.4.08a8.28 8.28 0 0 1-.9-.72v-.28zm1.03 1.66l.27-.16a3.1 3.1 0 0 1 .1.9 3.14 3.14 0 0 1-.3.92l-.27-.17a5.96 5.96 0 0 0 .2-1.5zm-.98.8a1.63 1.63 0 0 1 .83-.7 4.3 4.3 0 0 1-.26 1.26c-.2-.2-.38-.4-.58-.57zm-2.54-.4a4.23 4.23 0 0 1 .6.4 3.47 3.47 0 0 0 .6-.04 5.33 5.33 0 0 1-1.3 1.55l.1-.22.2-.37c-.1-.15-.1-.3-.2-.46l-.1-.78.4-.08zm1.2 1.2c.2 0 .3.06.4.08a1.53 1.53 0 0 1 1.1.77 3.18 3.18 0 0 1-1.6 0q.1-.5.3-.9z"/><path fill="#aeb7bc" d="M-38 11.72a1.57 1.57 0 0 1 .2-.97l.35.22a2.43 2.43 0 0 0-.26.3 2.83 2.83 0 0 0 .3.77l.2.46-.2.37a1.8 1.8 0 0 1-.8-1.15zm4.22-.85l.16-.08a5.95 5.95 0 0 1-.2 1.4l.18.4c-.18.2-.36.4-.52.6l.03-.1.2-.5-.48-.3a2 2 0 0 1-.2-1c.1.2.3.3.5.5a4.3 4.3 0 0 0 .2-1.3zm-2.6 1.82l.2.5a3.18 3.18 0 0 0 1.66 0"/><path fill="#bec5c9" d="M-37.84 10.3a2.57 2.57 0 0 1 1.96-1.56l.25.15a6.84 6.84 0 0 1-1.08.6v-.2l-1.2.9zm2.43-1.56a2.6 2.6 0 0 1 1.6.73l-.7-.2v.28l-.5-.63-.3.5-.2-.68m-1.5 1.1l.7-.1-.1.5a5.45 5.45 0 0 1-.9.2 5.06 5.06 0 0 1 .2-.6zm-1.2.84l.4.23a1.57 1.57 0 0 0-.3 1 1.8 1.8 0 0 0 .7 1.2l-.1.2v.1a2.9 2.9 0 0 1-.8-1.2 3.6 3.6 0 0 1-.1-1.4m1.2 3a17.35 17.35 0 0 1 2.3.1 3.74 3.74 0 0 1-1.2.3 3.7 3.7 0 0 1-1.2-.3"/><path fill="#808e95" d="M-35.14 9.38c.08-.17.18-.33.27-.5.16.2.3.42.46.64a8.3 8.3 0 0 0 .8.72l.4-.07.1.24a6.9 6.9 0 0 1-1.5.1 1.06 1.06 0 0 1-.7-1.1zm-2.65.9c.5-.3.8-.63 1.2-.94v.18l-.2.28a5.08 5.08 0 0 0-.2.6 5.45 5.45 0 0 0 .9-.2v.28a14.25 14.25 0 0 1-1.7-.13l.1-.08z"/><path fill="#bec5c9" d="M-34.96 9.55a1.16 1.16 0 0 1 .87.68.76.76 0 0 1-.6-.15 2.7 2.7 0 0 1-.2-.53zm1.62 1.04l.2-.2a3.48 3.48 0 0 1 .04 1.3c-.08.3-.2.7-.33 1a1.33 1.33 0 0 1-.7.7h-.33l.1-.2.14.1.07-.2.52-.7-.2-.4.28.1a3.14 3.14 0 0 0 .32-.9 3.1 3.1 0 0 0-.12-.9zm-4.36.6a2.42 2.42 0 0 1 .26-.3l.3.2-.37.1c0 .2.1.5.1.8a2.84 2.84 0 0 1-.4-.8zm1.32 1.4a5.13 5.13 0 0 1 .44-.3l-.23.8-.2-.6zm1.98-.2l.48.2-.2.4-.28-.7z"/><path fill="#a9b3b8" d="M-9.17 13.47c.3-.23.57-.47.86-.7 0 .17.1.35.2.53a3.18 3.18 0 0 0 1.6 0l.1.1-.1.23h-.2a17.35 17.35 0 0 0-2.4-.1l-.3-.06z"/><path fill="#ffffff" d="M-8.92 8.7a2.87 2.87 0 0 1 3.15.4 2.8 2.8 0 0 1 .44 3.8c.12-.35.25-.7.34-1.04a3.48 3.48 0 0 0 0-1.32l-.2.13-.2.16-.1.08a1.63 1.63 0 0 0-.8.7 2 2 0 0 0 .2 1l.3.7v.3l-.1-.1-.2-.1a1.53 1.53 0 0 0-1.1-.7l-.3-.1a5.16 5.16 0 0 0-.5.4l-.8.7.3.1a3.7 3.7 0 0 0 1.2.3 3.74 3.74 0 0 0 1.2-.2h.4a2.83 2.83 0 0 1-3.7-.4 2.86 2.86 0 0 1-.7-2.4A2.9 2.9 0 0 1-8.6 9z"/><path fill="#e7e9eb" d="M-8.07 8.65l.34-.06c-.1.5-.3 1-.36 1.6a1.6 1.6 0 0 1 .2 1.1 1.17 1.17 0 0 1-.5-1V10l.1-.5-.7.1.2-.3a6.84 6.84 0 0 0 1.1-.64l-.3-.1zm1.42.53c.24.06.48.12.72.2a1.55 1.55 0 0 1 .58.72l-.4.08a8.28 8.28 0 0 1-.9-.72v-.28zm1.02 1.66l.27-.16a3.1 3.1 0 0 1 .1.9 3.14 3.14 0 0 1-.3.92l-.27-.17a5.96 5.96 0 0 0 .2-1.5zm-.98.8a1.63 1.63 0 0 1 .8-.7 4.3 4.3 0 0 1-.3 1.26l-.6-.57zm-2.6-.4a4.24 4.24 0 0 1 .5.4 3.47 3.47 0 0 0 .6-.04 5.33 5.33 0 0 1-1.3 1.55l.1-.22.1-.37-.3-.46-.2-.78.4-.08zm1.2 1.2c.1 0 .2.06.3.08a1.53 1.53 0 0 1 1 .77 3.18 3.18 0 0 1-1.7 0q.1-.5.2-.9z"/><path fill="#aeb7bc" d="M-9.96 11.72a1.58 1.58 0 0 1 .2-.97l.35.22a2.44 2.44 0 0 0-.3.3 2.83 2.83 0 0 0 .3.77l.2.46-.2.37a1.8 1.8 0 0 1-.8-1.15zm4.23-.85l.15-.08a5.96 5.96 0 0 1-.2 1.4l.2.4c-.2.2-.37.4-.54.6l.04-.1c.06-.2.12-.3.2-.5l-.5-.3a2 2 0 0 1-.2-1l.58.6a4.3 4.3 0 0 0 .26-1.3zm-2.6 1.82c.05.1.1.3.2.5a3.18 3.18 0 0 0 1.65 0"/><path fill="#bec5c9" d="M-9.8 10.3a2.57 2.57 0 0 1 1.96-1.56l.25.15a6.84 6.84 0 0 1-1 .6v-.2c-.4.3-.7.6-1.1.9zm2.43-1.56a2.6 2.6 0 0 1 1.67.73l-.72-.2v.28c-.15-.2-.3-.43-.46-.63-.1.16-.18.33-.27.5l-.22-.68m-1.5 1.1l.74-.1-.06.5a5.45 5.45 0 0 1-.9.2 5.07 5.07 0 0 1 .3-.6zm-1.15.84l.46.22a1.57 1.57 0 0 0-.22.98 1.8 1.8 0 0 0 .75 1.15l-.1.22-.02.08a2.92 2.92 0 0 1-.8-1.22 3.6 3.6 0 0 1-.08-1.4m1.26 3a17.35 17.35 0 0 1 2.36.1 3.74 3.74 0 0 1-1.2.3 3.7 3.7 0 0 1-1.2-.3"/><path fill="#808e95" d="M-7.1 9.38c.08-.17.17-.33.27-.5.16.2.3.42.46.64a8.28 8.28 0 0 0 .88.72l.5-.07.1.24a6.9 6.9 0 0 1-1.4.1A1.06 1.06 0 0 1-7 9.4zm-2.66.9c.4-.3.78-.63 1.17-.94v.18l-.2.28a5.07 5.07 0 0 0-.2.6 5.45 5.45 0 0 0 .9-.2v.28a14.25 14.25 0 0 1-1.7-.13l.1-.08z"/><path fill="#bec5c9" d="M-6.92 9.55a1.16 1.16 0 0 1 .88.68.76.76 0 0 1-.66-.15 2.7 2.7 0 0 1-.22-.53zm1.62 1.04l.2-.2a3.48 3.48 0 0 1 .05 1.3c-.1.3-.22.7-.34 1a1.33 1.33 0 0 1-.7.7h-.3c0-.1.1-.2.1-.2l.2.1.1-.2.6-.7-.2-.4.3.1a3.14 3.14 0 0 0 .3-.9 3.1 3.1 0 0 0-.1-.9zm-4.36.6a2.43 2.43 0 0 1 .26-.3l.3.2-.37.1.17.8a2.84 2.84 0 0 1-.36-.8zm1.33 1.4a5.14 5.14 0 0 1 .43-.3l-.23.8-.2-.6zm1.97-.2l.48.2-.2.4c-.08-.3-.18-.5-.28-.7z"/><animateTransform attributeName="transform" type="translate" from="0 0" to="171 0" dur="2200ms" repeatCount="indefinite"/></g></svg>
